<?xml version="1.0" standalone="no"?>
<!DOCTYPE svg PUBLIC "-//W3C//DTD SVG 20010904//EN"
 "http://www.w3.org/TR/2001/REC-SVG-20010904/DTD/svg10.dtd">
<svg version="1.0" xmlns="http://www.w3.org/2000/svg"
 width="32.000000pt" height="32.000000pt" viewBox="0 0 32.000000 32.000000"
 preserveAspectRatio="xMidYMid meet">

<g transform="translate(0.000000,32.000000) scale(0.100000,-0.100000)"
fill="#000000" stroke="none">
<path d="M92 303 c-18 -9 -45 -32 -60 -51 -35 -46 -38 -135 -6 -178 39 -52 71
-69 133 -69 48 0 64 5 95 29 150 114 7 352 -162 269z m136 -23 c88 -54 95
-167 15 -230 l-28 -21 -7 27 c-6 24 -3 32 24 54 31 27 32 27 22 85 l-9 59 -85
0 -85 0 -9 -59 c-10 -58 -10 -58 23 -86 21 -17 29 -29 21 -34 -6 -4 -20 1 -31
11 -10 9 -22 14 -26 10 -4 -4 -3 -10 3 -14 41 -28 57 -42 52 -47 -8 -9 -57 35
-73 65 -61 117 80 249 193 180z m8 -87 c8 -55 1 -72 -37 -85 -22 -7 -27 -14
-20 -21 6 -6 11 -24 11 -39 0 -24 -4 -28 -30 -28 -26 0 -30 4 -30 28 0 15 5
33 11 39 7 7 2 14 -20 21 -38 13 -45 30 -37 85 l6 42 70 0 70 0 6 -42z"/>
</g>
</svg>
